<mxfile host="Electron" agent="Mozilla/5.0 (Windows NT 10.0; Win64; x64) AppleWebKit/537.36 (KHTML, like Gecko) draw.io/26.2.15 Chrome/134.0.6998.205 Electron/35.2.1 Safari/537.36" version="26.2.15">
  <diagram name="Page-1" id="lWosFtU7UhRygItikXrS">
    <mxGraphModel dx="1426" dy="1699" grid="1" gridSize="10" guides="1" tooltips="1" connect="1" arrows="1" fold="1" page="1" pageScale="1" pageWidth="1100" pageHeight="850" math="0" shadow="0">
      <root>
        <mxCell id="0" />
        <mxCell id="1" parent="0" />
        <mxCell id="7whJvvNJtx_EIwJ3c6O7-9" value="The user triggers a simulation run from the GUI, by clicking the Run button." style="shape=callout;whiteSpace=wrap;html=1;perimeter=calloutPerimeter;direction=south;size=30;position=0.43;spacing=5;" vertex="1" parent="1">
          <mxGeometry x="400" y="90" width="270" height="70" as="geometry" />
        </mxCell>
        <mxCell id="7whJvvNJtx_EIwJ3c6O7-24" style="edgeStyle=orthogonalEdgeStyle;rounded=0;orthogonalLoop=1;jettySize=auto;html=1;exitX=1;exitY=0.5;exitDx=0;exitDy=0;entryX=0;entryY=0.5;entryDx=0;entryDy=0;strokeWidth=3;" edge="1" parent="1" source="7whJvvNJtx_EIwJ3c6O7-4" target="7whJvvNJtx_EIwJ3c6O7-5">
          <mxGeometry relative="1" as="geometry">
            <mxPoint x="360" y="350" as="sourcePoint" />
          </mxGeometry>
        </mxCell>
        <mxCell id="7whJvvNJtx_EIwJ3c6O7-4" value="Compute Parameters" style="shape=step;perimeter=stepPerimeter;whiteSpace=wrap;html=1;fixedSize=1;direction=south;fillColor=#d5e8d4;strokeColor=#82b366;" vertex="1" parent="1">
          <mxGeometry x="320" y="220" width="80" height="120" as="geometry" />
        </mxCell>
        <mxCell id="7whJvvNJtx_EIwJ3c6O7-17" style="edgeStyle=orthogonalEdgeStyle;rounded=0;orthogonalLoop=1;jettySize=auto;html=1;exitX=1;exitY=0.5;exitDx=0;exitDy=0;entryX=0.5;entryY=0;entryDx=0;entryDy=0;strokeWidth=3;" edge="1" parent="1" source="7whJvvNJtx_EIwJ3c6O7-5" target="7whJvvNJtx_EIwJ3c6O7-15">
          <mxGeometry relative="1" as="geometry">
            <mxPoint x="360" y="480" as="sourcePoint" />
          </mxGeometry>
        </mxCell>
        <mxCell id="7whJvvNJtx_EIwJ3c6O7-5" value="Execute Simulation" style="shape=step;perimeter=stepPerimeter;whiteSpace=wrap;html=1;fixedSize=1;direction=south;" vertex="1" parent="1">
          <mxGeometry x="320" y="350" width="80" height="120" as="geometry" />
        </mxCell>
        <mxCell id="7whJvvNJtx_EIwJ3c6O7-25" style="edgeStyle=orthogonalEdgeStyle;rounded=0;orthogonalLoop=1;jettySize=auto;html=1;exitX=1;exitY=0.5;exitDx=0;exitDy=0;strokeWidth=3;" edge="1" parent="1" source="7whJvvNJtx_EIwJ3c6O7-6" target="7whJvvNJtx_EIwJ3c6O7-7">
          <mxGeometry relative="1" as="geometry" />
        </mxCell>
        <mxCell id="7whJvvNJtx_EIwJ3c6O7-6" value="Compute Equations" style="shape=step;perimeter=stepPerimeter;whiteSpace=wrap;html=1;fixedSize=1;direction=south;fillColor=#dae8fc;strokeColor=#6c8ebf;" vertex="1" parent="1">
          <mxGeometry x="320" y="550" width="80" height="90" as="geometry" />
        </mxCell>
        <mxCell id="7whJvvNJtx_EIwJ3c6O7-7" value="Display Results" style="shape=step;perimeter=stepPerimeter;whiteSpace=wrap;html=1;fixedSize=1;direction=south;" vertex="1" parent="1">
          <mxGeometry x="320" y="650" width="80" height="90" as="geometry" />
        </mxCell>
        <mxCell id="7whJvvNJtx_EIwJ3c6O7-22" style="edgeStyle=orthogonalEdgeStyle;rounded=0;orthogonalLoop=1;jettySize=auto;html=1;exitX=1;exitY=0.5;exitDx=0;exitDy=0;entryX=0;entryY=0.5;entryDx=0;entryDy=0;strokeWidth=3;" edge="1" parent="1" source="7whJvvNJtx_EIwJ3c6O7-8" target="7whJvvNJtx_EIwJ3c6O7-4">
          <mxGeometry relative="1" as="geometry" />
        </mxCell>
        <mxCell id="7whJvvNJtx_EIwJ3c6O7-8" value="User Triggers Simulation" style="shape=step;perimeter=stepPerimeter;whiteSpace=wrap;html=1;fixedSize=1;direction=south;" vertex="1" parent="1">
          <mxGeometry x="320" y="70" width="80" height="120" as="geometry" />
        </mxCell>
        <mxCell id="7whJvvNJtx_EIwJ3c6O7-10" value="The circuit&#39;s Parameters (set with the SPICE .PARAM command) are calculated &lt;u&gt;in advance&lt;/u&gt; of the simulation." style="shape=callout;whiteSpace=wrap;html=1;perimeter=calloutPerimeter;direction=south;size=30;position=0.43;spacing=5;fillColor=#d5e8d4;strokeColor=#82b366;" vertex="1" parent="1">
          <mxGeometry x="400" y="240" width="270" height="70" as="geometry" />
        </mxCell>
        <mxCell id="7whJvvNJtx_EIwJ3c6O7-11" value="The simulation is executed with the chosen backend." style="shape=callout;whiteSpace=wrap;html=1;perimeter=calloutPerimeter;direction=south;size=30;position=0.43;spacing=5;" vertex="1" parent="1">
          <mxGeometry x="400" y="375" width="270" height="70" as="geometry" />
        </mxCell>
        <mxCell id="7whJvvNJtx_EIwJ3c6O7-12" value="&lt;u&gt;After the simulation is complete,&lt;/u&gt; results are postprocessed with any user-specified Equations (specific syntax/capabilities depends on your chosen backend)." style="shape=callout;whiteSpace=wrap;html=1;perimeter=calloutPerimeter;direction=south;size=30;position=0.43;spacing=5;fillColor=#dae8fc;strokeColor=#6c8ebf;" vertex="1" parent="1">
          <mxGeometry x="400" y="570" width="270" height="70" as="geometry" />
        </mxCell>
        <mxCell id="7whJvvNJtx_EIwJ3c6O7-13" value="Both the raw simulation results AND the results of the Equations are available for graphing with Diagrams." style="shape=callout;whiteSpace=wrap;html=1;perimeter=calloutPerimeter;direction=south;size=30;position=0.43;spacing=5;" vertex="1" parent="1">
          <mxGeometry x="400" y="670" width="270" height="70" as="geometry" />
        </mxCell>
        <mxCell id="7whJvvNJtx_EIwJ3c6O7-18" style="edgeStyle=orthogonalEdgeStyle;rounded=0;orthogonalLoop=1;jettySize=auto;html=1;exitX=0.5;exitY=1;exitDx=0;exitDy=0;entryX=0;entryY=0.5;entryDx=0;entryDy=0;strokeWidth=3;" edge="1" parent="1" source="7whJvvNJtx_EIwJ3c6O7-15" target="7whJvvNJtx_EIwJ3c6O7-6">
          <mxGeometry relative="1" as="geometry">
            <mxPoint x="360" y="560" as="sourcePoint" />
          </mxGeometry>
        </mxCell>
        <mxCell id="7whJvvNJtx_EIwJ3c6O7-21" style="edgeStyle=orthogonalEdgeStyle;rounded=0;orthogonalLoop=1;jettySize=auto;html=1;exitX=0;exitY=0.5;exitDx=0;exitDy=0;entryX=0;entryY=0.5;entryDx=0;entryDy=0;strokeWidth=3;" edge="1" parent="1" source="7whJvvNJtx_EIwJ3c6O7-15" target="7whJvvNJtx_EIwJ3c6O7-4">
          <mxGeometry relative="1" as="geometry">
            <Array as="points">
              <mxPoint x="280" y="520" />
              <mxPoint x="280" y="210" />
              <mxPoint x="360" y="210" />
            </Array>
          </mxGeometry>
        </mxCell>
        <mxCell id="7whJvvNJtx_EIwJ3c6O7-15" value="" style="rhombus;whiteSpace=wrap;html=1;" vertex="1" parent="1">
          <mxGeometry x="340" y="500" width="40" height="40" as="geometry" />
        </mxCell>
        <mxCell id="7whJvvNJtx_EIwJ3c6O7-23" value="If the simulation is being controlled by a Parameter Sweep, multiple iterations of the simulation will be executed, covering the full range of the parameter." style="shape=callout;whiteSpace=wrap;html=1;perimeter=calloutPerimeter;direction=north;spacing=5;position2=0.71;" vertex="1" parent="1">
          <mxGeometry x="110" y="470" width="170" height="165" as="geometry" />
        </mxCell>
        <mxCell id="7whJvvNJtx_EIwJ3c6O7-29" value="Parameters" style="rounded=1;whiteSpace=wrap;html=1;fillColor=#d5e8d4;strokeColor=#82b366;fontStyle=1;fontSize=16;" vertex="1" parent="1">
          <mxGeometry x="220" y="-50" width="120" height="60" as="geometry" />
        </mxCell>
        <mxCell id="7whJvvNJtx_EIwJ3c6O7-30" value="Equations" style="rounded=1;whiteSpace=wrap;html=1;fillColor=#dae8fc;strokeColor=#6c8ebf;fontStyle=1;fontSize=16;" vertex="1" parent="1">
          <mxGeometry x="380" y="-50" width="120" height="60" as="geometry" />
        </mxCell>
        <mxCell id="7whJvvNJtx_EIwJ3c6O7-31" value="&lt;b&gt;&lt;font style=&quot;font-size: 14px;&quot;&gt;vs&lt;/font&gt;&lt;/b&gt;" style="text;strokeColor=none;align=center;fillColor=none;html=1;verticalAlign=middle;whiteSpace=wrap;rounded=0;" vertex="1" parent="1">
          <mxGeometry x="330" y="-35" width="60" height="30" as="geometry" />
        </mxCell>
        <mxCell id="7whJvvNJtx_EIwJ3c6O7-33" value="in Qucs-S Simulations" style="text;strokeColor=none;align=center;fillColor=none;html=1;verticalAlign=middle;whiteSpace=wrap;rounded=0;fontSize=18;fontStyle=1" vertex="1" parent="1">
          <mxGeometry x="250" y="20" width="220" height="30" as="geometry" />
        </mxCell>
      </root>
    </mxGraphModel>
  </diagram>
</mxfile>
